<svg width="272" height="272" xmlns="http://www.w3.org/2000/svg"> <line x1="19.32233047033631" y1="6.381378215210273" x2="6.381378215210273" y2="54.67766952966369" stroke-linecap="round" stroke-width="5.0" class="open wall" /> <line x1="6.381378215210273" y1="54.67766952966369" x2="19.32233047033631" y2="102.9739608441171" stroke="black" stroke-linecap="round" stroke-width="5.0" /> <line x1="19.32233047033631" y1="102.9739608441171" x2="6.381378215210273" y2="151.27025215857051" stroke="black" stroke-linecap="round" stroke-width="5.0" /> <line x1="6.381378215210273" y1="151.27025215857051" x2="19.32233047033631" y2="199.56654347302393" stroke="black" stroke-linecap="round" stroke-width="5.0" /> <line x1="19.32233047033631" y1="199.56654347302393" x2="6.381378215210273" y2="247.86283478747734" stroke="black" stroke-linecap="round" stroke-width="5.0" /> <line x1="19.32233047033631" y1="6.381378215210273" x2="67.61862178478972" y2="19.32233047033631" stroke="black" stroke-linecap="round" stroke-width="5.0" /> <line x1="6.381378215210273" y1="54.67766952966369" x2="54.67766952966369" y2="67.61862178478972" stroke-linecap="round" stroke-width="5.0" class="open wall" /> <line x1="67.61862178478972" y1="19.32233047033631" x2="54.67766952966369" y2="67.61862178478972" stroke="black" stroke-linecap="round" stroke-width="5.0" /> <line x1="19.32233047033631" y1="102.9739608441171" x2="67.61862178478972" y2="115.91491309924315" stroke="black" stroke-linecap="round" stroke-width="5.0" /> <line x1="54.67766952966369" y1="67.61862178478972" x2="67.61862178478972" y2="115.91491309924315" stroke-linecap="round" stroke-width="5.0" class="open wall" /> <line x1="54.67766952966369" y1="67.61862178478972" x2="19.32233047033631" y2="102.9739608441171" stroke-linecap="round" stroke-width="5.0" class="open wall" /> <line x1="6.381378215210273" y1="151.27025215857051" x2="54.67766952966369" y2="164.21120441369655" stroke-linecap="round" stroke-width="5.0" class="open wall" /> <line x1="67.61862178478972" y1="115.91491309924315" x2="54.67766952966369" y2="164.21120441369655" stroke-linecap="round" stroke-width="5.0" class="open wall" /> <line x1="19.32233047033631" y1="199.56654347302393" x2="67.61862178478972" y2="212.50749572815" stroke-linecap="round" stroke-width="5.0" class="open wall" /> <line x1="54.67766952966369" y1="164.21120441369655" x2="67.61862178478972" y2="212.50749572815" stroke="black" stroke-linecap="round" stroke-width="5.0" /> <line x1="54.67766952966369" y1="164.21120441369655" x2="19.32233047033631" y2="199.56654347302393" stroke-linecap="round" stroke-width="5.0" class="open wall" /> <line x1="6.381378215210273" y1="247.86283478747734" x2="54.67766952966369" y2="260.8037870426034" stroke="black" stroke-linecap="round" stroke-width="5.0" /> <line x1="67.61862178478972" y1="212.50749572815" x2="54.67766952966369" y2="260.8037870426034" stroke-linecap="round" stroke-width="5.0" class="open wall" /> <line x1="67.61862178478972" y1="19.32233047033631" x2="115.91491309924315" y2="6.381378215210273" stroke="black" stroke-linecap="round" stroke-width="5.0" /> <line x1="54.67766952966369" y1="67.61862178478972" x2="102.9739608441171" y2="54.67766952966369" stroke-linecap="round" stroke-width="5.0" class="open wall" /> <line x1="115.91491309924315" y1="6.381378215210273" x2="102.9739608441171" y2="54.67766952966369" stroke-linecap="round" stroke-width="5.0" class="open wall" /> <line x1="102.9739608441171" y1="54.67766952966369" x2="67.61862178478972" y2="19.32233047033631" stroke-linecap="round" stroke-width="5.0" class="open wall" /> <line x1="67.61862178478972" y1="115.91491309924315" x2="115.91491309924315" y2="102.9739608441171" stroke="black" stroke-linecap="round" stroke-width="5.0" /> <line x1="102.9739608441171" y1="54.67766952966369" x2="115.91491309924315" y2="102.9739608441171" stroke="black" stroke-linecap="round" stroke-width="5.0" /> <line x1="54.67766952966369" y1="164.21120441369655" x2="102.9739608441171" y2="151.27025215857051" stroke-linecap="round" stroke-width="5.0" class="open wall" /> <line x1="115.91491309924315" y1="102.9739608441171" x2="102.9739608441171" y2="151.27025215857051" stroke-linecap="round" stroke-width="5.0" class="open wall" /> <line x1="102.9739608441171" y1="151.27025215857051" x2="67.61862178478972" y2="115.91491309924315" stroke-linecap="round" stroke-width="5.0" class="open wall" /> <line x1="67.61862178478972" y1="212.50749572815" x2="115.91491309924315" y2="199.56654347302393" stroke-linecap="round" stroke-width="5.0" class="open wall" /> <line x1="102.9739608441171" y1="151.27025215857051" x2="115.91491309924315" y2="199.56654347302393" stroke="black" stroke-linecap="round" stroke-width="5.0" /> <line x1="54.67766952966369" y1="260.8037870426034" x2="102.9739608441171" y2="247.86283478747734" stroke="black" stroke-linecap="round" stroke-width="5.0" /> <line x1="115.91491309924315" y1="199.56654347302393" x2="102.9739608441171" y2="247.86283478747734" stroke-linecap="round" stroke-width="5.0" class="open wall" /> <line x1="102.9739608441171" y1="247.86283478747734" x2="67.61862178478972" y2="212.50749572815" stroke="black" stroke-linecap="round" stroke-width="5.0" /> <line x1="115.91491309924315" y1="6.381378215210273" x2="164.21120441369655" y2="19.32233047033631" stroke="black" stroke-linecap="round" stroke-width="5.0" /> <line x1="102.9739608441171" y1="54.67766952966369" x2="151.27025215857051" y2="67.61862178478972" stroke="black" stroke-linecap="round" stroke-width="5.0" /> <line x1="164.21120441369655" y1="19.32233047033631" x2="151.27025215857051" y2="67.61862178478972" stroke-linecap="round" stroke-width="5.0" class="open wall" /> <line x1="115.91491309924315" y1="102.9739608441171" x2="164.21120441369655" y2="115.91491309924315" stroke-linecap="round" stroke-width="5.0" class="open wall" /> <line x1="151.27025215857051" y1="67.61862178478972" x2="164.21120441369655" y2="115.91491309924315" stroke="black" stroke-linecap="round" stroke-width="5.0" /> <line x1="151.27025215857051" y1="67.61862178478972" x2="115.91491309924315" y2="102.9739608441171" stroke-linecap="round" stroke-width="5.0" class="open wall" /> <line x1="102.9739608441171" y1="151.27025215857051" x2="151.27025215857051" y2="164.21120441369655" stroke-linecap="round" stroke-width="5.0" class="open wall" /> <line x1="164.21120441369655" y1="115.91491309924315" x2="151.27025215857051" y2="164.21120441369655" stroke-linecap="round" stroke-width="5.0" class="open wall" /> <line x1="115.91491309924315" y1="199.56654347302393" x2="164.21120441369655" y2="212.50749572815" stroke-linecap="round" stroke-width="5.0" class="open wall" /> <line x1="151.27025215857051" y1="164.21120441369655" x2="164.21120441369655" y2="212.50749572815" stroke-linecap="round" stroke-width="5.0" class="open wall" /> <line x1="151.27025215857051" y1="164.21120441369655" x2="115.91491309924315" y2="199.56654347302393" stroke="black" stroke-linecap="round" stroke-width="5.0" /> <line x1="102.9739608441171" y1="247.86283478747734" x2="151.27025215857051" y2="260.8037870426034" stroke="black" stroke-linecap="round" stroke-width="5.0" /> <line x1="164.21120441369655" y1="212.50749572815" x2="151.27025215857051" y2="260.8037870426034" stroke-linecap="round" stroke-width="5.0" class="open wall" /> <line x1="164.21120441369655" y1="19.32233047033631" x2="212.50749572815" y2="6.381378215210273" stroke="black" stroke-linecap="round" stroke-width="5.0" /> <line x1="151.27025215857051" y1="67.61862178478972" x2="199.56654347302393" y2="54.67766952966369" stroke-linecap="round" stroke-width="5.0" class="open wall" /> <line x1="212.50749572815" y1="6.381378215210273" x2="199.56654347302393" y2="54.67766952966369" stroke-linecap="round" stroke-width="5.0" class="open wall" /> <line x1="199.56654347302393" y1="54.67766952966369" x2="164.21120441369655" y2="19.32233047033631" stroke="black" stroke-linecap="round" stroke-width="5.0" /> <line x1="164.21120441369655" y1="115.91491309924315" x2="212.50749572815" y2="102.9739608441171" stroke="black" stroke-linecap="round" stroke-width="5.0" /> <line x1="199.56654347302393" y1="54.67766952966369" x2="212.50749572815" y2="102.9739608441171" stroke-linecap="round" stroke-width="5.0" class="open wall" /> <line x1="151.27025215857051" y1="164.21120441369655" x2="199.56654347302393" y2="151.27025215857051" stroke="black" stroke-linecap="round" stroke-width="5.0" /> <line x1="212.50749572815" y1="102.9739608441171" x2="199.56654347302393" y2="151.27025215857051" stroke="black" stroke-linecap="round" stroke-width="5.0" /> <line x1="199.56654347302393" y1="151.27025215857051" x2="164.21120441369655" y2="115.91491309924315" stroke-linecap="round" stroke-width="5.0" class="open wall" /> <line x1="164.21120441369655" y1="212.50749572815" x2="212.50749572815" y2="199.56654347302393" stroke="black" stroke-linecap="round" stroke-width="5.0" /> <line x1="199.56654347302393" y1="151.27025215857051" x2="212.50749572815" y2="199.56654347302393" stroke-linecap="round" stroke-width="5.0" class="open wall" /> <line x1="151.27025215857051" y1="260.8037870426034" x2="199.56654347302393" y2="247.86283478747734" stroke="black" stroke-linecap="round" stroke-width="5.0" /> <line x1="212.50749572815" y1="199.56654347302393" x2="199.56654347302393" y2="247.86283478747734" stroke-linecap="round" stroke-width="5.0" class="open wall" /> <line x1="199.56654347302393" y1="247.86283478747734" x2="164.21120441369655" y2="212.50749572815" stroke-linecap="round" stroke-width="5.0" class="open wall" /> <line x1="212.50749572815" y1="6.381378215210273" x2="260.8037870426034" y2="19.32233047033631" stroke="black" stroke-linecap="round" stroke-width="5.0" /> <line x1="199.56654347302393" y1="54.67766952966369" x2="247.86283478747734" y2="67.61862178478972" stroke-linecap="round" stroke-width="5.0" class="open wall" /> <line x1="260.8037870426034" y1="19.32233047033631" x2="247.86283478747734" y2="67.61862178478972" stroke="black" stroke-linecap="round" stroke-width="5.0" /> <line x1="212.50749572815" y1="102.9739608441171" x2="260.8037870426034" y2="115.91491309924315" stroke-linecap="round" stroke-width="5.0" class="open wall" /> <line x1="247.86283478747734" y1="67.61862178478972" x2="260.8037870426034" y2="115.91491309924315" stroke="black" stroke-linecap="round" stroke-width="5.0" /> <line x1="247.86283478747734" y1="67.61862178478972" x2="212.50749572815" y2="102.9739608441171" stroke-linecap="round" stroke-width="5.0" class="open wall" /> <line x1="199.56654347302393" y1="151.27025215857051" x2="247.86283478747734" y2="164.21120441369655" stroke-linecap="round" stroke-width="5.0" class="open wall" /> <line x1="260.8037870426034" y1="115.91491309924315" x2="247.86283478747734" y2="164.21120441369655" stroke="black" stroke-linecap="round" stroke-width="5.0" /> <line x1="212.50749572815" y1="199.56654347302393" x2="260.8037870426034" y2="212.50749572815" stroke-linecap="round" stroke-width="5.0" class="open wall" /> <line x1="247.86283478747734" y1="164.21120441369655" x2="260.8037870426034" y2="212.50749572815" stroke="black" stroke-linecap="round" stroke-width="5.0" /> <line x1="247.86283478747734" y1="164.21120441369655" x2="212.50749572815" y2="199.56654347302393" stroke="black" stroke-linecap="round" stroke-width="5.0" /> <line x1="199.56654347302393" y1="247.86283478747734" x2="247.86283478747734" y2="260.8037870426034" stroke="black" stroke-linecap="round" stroke-width="5.0" /> <line x1="260.8037870426034" y1="212.50749572815" x2="247.86283478747734" y2="260.8037870426034" stroke-linecap="round" stroke-width="5.0" class="open wall" /> </svg>